<?xml version="1.0" encoding="UTF-8"?>
<svg version="1.1" xmlns="http://www.w3.org/2000/svg" width="64" height="64">
<path d="M0 0 C4.29 0 8.58 0 13 0 C13 1.98 13 3.96 13 6 C12.01 6 11.02 6 10 6 C10 7.98 10 9.96 10 12 C12.31 12.66 14.62 13.32 17 14 C17 16.97 17 19.94 17 23 C15.02 22.67 13.04 22.34 11 22 C11 23.65 11 25.3 11 27 C12.98 27 14.96 27 17 27 C20.52309732 32.0644524 21.44314589 35.6140462 21.43359375 41.765625 C20.91036293 44.46191353 20.20931621 45.39889555 18 47 C17.01 47 16.02 47 15 47 C15 47.66 15 48.32 15 49 C16.98 49 18.96 49 21 49 C21 50.98 21 52.96 21 55 C1.2 55 -18.6 55 -39 55 C-39 53.02 -39 51.04 -39 49 C-37.02 49 -35.04 49 -33 49 C-33 48.34 -33 47.68 -33 47 C-33.928125 46.814375 -33.928125 46.814375 -34.875 46.625 C-37 46 -37 46 -39 44 C-40.06715589 37.21239219 -38.86859046 32.56109878 -35 27 C-33.02 27 -31.04 27 -29 27 C-29 25.35 -29 23.7 -29 22 C-30.98 22.33 -32.96 22.66 -35 23 C-35 20.03 -35 17.06 -35 14 C-31.30100691 12.14736796 -27.58944775 10.32142197 -23.875 8.5 C-22.82828125 7.97535156 -21.7815625 7.45070313 -20.703125 6.91015625 C-19.17558594 6.16572266 -19.17558594 6.16572266 -17.6171875 5.40625 C-16.68503418 4.94541016 -15.75288086 4.48457031 -14.79248047 4.00976562 C-10.19463257 2.34717611 -7.06928175 2.52476367 -2.625 4.5 C-1.75875 4.995 -0.8925 5.49 0 6 C0 4.02 0 2.04 0 0 Z M0 6 C1.485 6.99 1.485 6.99 3 8 C3 7.34 3 6.68 3 6 C2.01 6 1.02 6 0 6 Z M-15.2265625 8.40625 C-16.7734375 9.15068359 -16.7734375 9.15068359 -18.3515625 9.91015625 C-19.43179687 10.43480469 -20.51203125 10.95945312 -21.625 11.5 C-23.25695312 12.28697266 -23.25695312 12.28697266 -24.921875 13.08984375 C-27.61627613 14.38977412 -30.30887773 15.6932987 -33 17 C-33 17.66 -33 18.32 -33 19 C-27.38678215 18.31065746 -22.85464941 15.46262363 -17.97070312 12.79492188 C-13.81256698 10.61534909 -10.78677327 9.18715171 -6 10 C-2.64595618 11.30231493 0.54246279 12.87426196 3.75 14.5 C5.45153479 15.34695229 7.15458843 16.19086225 8.859375 17.03125 C9.60670898 17.40830078 10.35404297 17.78535156 11.12402344 18.17382812 C12.96342034 19.13434731 12.96342034 19.13434731 15 19 C15 18.34 15 17.68 15 17 C11.21135025 15.16038326 7.41860225 13.32937928 3.625 11.5 C2.54476562 10.97535156 1.46453125 10.45070313 0.3515625 9.91015625 C-0.6796875 9.41386719 -1.7109375 8.91757813 -2.7734375 8.40625 C-3.72653809 7.94541016 -4.67963867 7.48457031 -5.66162109 7.00976562 C-9.65401021 5.28576047 -11.43523148 6.57307896 -15.2265625 8.40625 Z M-21 27 C-21 27.66 -21 28.32 -21 29 C-18.36 29 -15.72 29 -13 29 C-13 28.34 -13 27.68 -13 27 C-15.64 27 -18.28 27 -21 27 Z M-6 27 C-6 29.64 -6 32.28 -6 35 C-4.68 35 -3.36 35 -2 35 C-2 32.36 -2 29.72 -2 27 C-3.32 27 -4.64 27 -6 27 Z M0 27 C0 29.64 0 32.28 0 35 C1.32 35 2.64 35 4 35 C4 32.36 4 29.72 4 27 C2.68 27 1.36 27 0 27 Z M-33 30 C-35.65673037 34.53858105 -36.41199125 37.7471116 -36 43 C-34.88163776 44.34404775 -34.88163776 44.34404775 -32 44.125 C-29.11836224 44.34404775 -29.11836224 44.34404775 -28 43 C-27.58800875 37.7471116 -28.34326963 34.53858105 -31 30 C-31.66 30 -32.32 30 -33 30 Z M13 30 C10.34326963 34.53858105 9.58800875 37.7471116 10 43 C11.11836224 44.34404775 11.11836224 44.34404775 14 44.125 C16.88163776 44.34404775 16.88163776 44.34404775 18 43 C18.41199125 37.7471116 17.65673037 34.53858105 15 30 C14.34 30 13.68 30 13 30 Z M-21 31 C-21 36.94 -21 42.88 -21 49 C-18.36 49 -15.72 49 -13 49 C-13 43.06 -13 37.12 -13 31 C-15.64 31 -18.28 31 -21 31 Z M-6 37 C-6 37.33 -6 37.66 -6 38 C-2.7 38 0.6 38 4 38 C4 37.67 4 37.34 4 37 C0.7 37 -2.6 37 -6 37 Z M-31 47 C-31 47.66 -31 48.32 -31 49 C-30.34 49 -29.68 49 -29 49 C-29 48.34 -29 47.68 -29 47 C-29.66 47 -30.32 47 -31 47 Z M11 47 C11 47.66 11 48.32 11 49 C11.66 49 12.32 49 13 49 C13 48.34 13 47.68 13 47 C12.34 47 11.68 47 11 47 Z M-37 51 C-37 51.66 -37 52.32 -37 53 C-35.68 53 -34.36 53 -33 53 C-33 52.34 -33 51.68 -33 51 C-34.32 51 -35.64 51 -37 51 Z M-31 51 C-31 51.66 -31 52.32 -31 53 C-28.69 53 -26.38 53 -24 53 C-24 52.34 -24 51.68 -24 51 C-26.31 51 -28.62 51 -31 51 Z M-10 51 C-10 51.66 -10 52.32 -10 53 C-2.41 53 5.18 53 13 53 C13 52.34 13 51.68 13 51 C5.41 51 -2.18 51 -10 51 Z M15 51 C15 51.66 15 52.32 15 53 C16.32 53 17.64 53 19 53 C19 52.34 19 51.68 19 51 C17.68 51 16.36 51 15 51 Z " fill="#BEE1C2" transform="translate(41,7)"/>
<path d="M0 0 C1.69769531 0.85464844 1.69769531 0.85464844 3.4296875 1.7265625 C4.56664063 2.35304688 5.70359375 2.97953125 6.875 3.625 C8.02742188 4.25664062 9.17984375 4.88828125 10.3671875 5.5390625 C11.67042969 6.26222656 11.67042969 6.26222656 13 7 C13.02701408 9.10409639 13.04640223 11.20829178 13.0625 13.3125 C13.07410156 14.48425781 13.08570313 15.65601563 13.09765625 16.86328125 C13 20 13 20 12 23 C11.83322718 26.58343976 11.83322718 26.58343976 12 30 C12.33 30.33 12.66 30.66 13 31 C13 32.65 13 34.3 13 36 C6.4 36 -0.2 36 -7 36 C-7 28.08 -7 20.16 -7 12 C-10.96 12 -14.92 12 -19 12 C-19 19.92 -19 27.84 -19 36 C-20.32 36 -21.64 36 -23 36 C-22.91621094 35.09636719 -22.83242188 34.19273438 -22.74609375 33.26171875 C-22.64425781 32.08222656 -22.54242188 30.90273438 -22.4375 29.6875 C-22.33308594 28.51574219 -22.22867187 27.34398437 -22.12109375 26.13671875 C-21.81422566 22.96967425 -21.81422566 22.96967425 -23 20 C-23.06970052 17.60509014 -23.08448003 15.20832309 -23.0625 12.8125 C-23.05347656 11.54019531 -23.04445313 10.26789062 -23.03515625 8.95703125 C-23.02355469 7.98121094 -23.01195312 7.00539063 -23 6 C-20.30216785 4.60001138 -17.59505067 3.23055157 -14.875 1.875 C-14.11445313 1.47667969 -13.35390625 1.07835937 -12.5703125 0.66796875 C-7.66601815 -1.74190003 -5.12682962 -2.61914122 0 0 Z M-2 14 C-2 16.64 -2 19.28 -2 22 C-0.68 22 0.64 22 2 22 C2 19.36 2 16.72 2 14 C0.68 14 -0.64 14 -2 14 Z M4 14 C4 16.64 4 19.28 4 22 C5.32 22 6.64 22 8 22 C8 19.36 8 16.72 8 14 C6.68 14 5.36 14 4 14 Z M-2 24 C-2 24.33 -2 24.66 -2 25 C1.3 25 4.6 25 8 25 C8 24.67 8 24.34 8 24 C4.7 24 1.4 24 -2 24 Z " fill="#FCC041" transform="translate(37,20)"/>
<path d="M0 0 C4.62 0 9.24 0 14 0 C14 4.95 14 9.9 14 15 C9.38 15 4.76 15 0 15 C0 10.05 0 5.1 0 0 Z M2 2 C2 4.64 2 7.28 2 10 C3.32 10 4.64 10 6 10 C6 7.36 6 4.72 6 2 C4.68 2 3.36 2 2 2 Z M8 2 C8 4.64 8 7.28 8 10 C9.32 10 10.64 10 12 10 C12 7.36 12 4.72 12 2 C10.68 2 9.36 2 8 2 Z M2 12 C2 12.33 2 12.66 2 13 C5.3 13 8.6 13 12 13 C12 12.67 12 12.34 12 12 C8.7 12 5.4 12 2 12 Z " fill="#BCE2C8" transform="translate(33,32)"/>
</svg>
